#N canvas 50 22 1920 980 10;
#X obj 12 165 print rsvOSC;
#X msg 1264 261 print;
#X msg 1206 219 start;
#X msg 1364 265 stop;
#X obj 1254 305 writesf~ 2;
#X obj 1450 265 loadbang;
#X obj 1454 355 soundfiler;
#N canvas 0 22 450 300 (subpatch) 0;
#X array A 383166 float 0;
#X coords 0 1 383165 -1 200 140 1;
#X restore -85 634 graph;
#X msg 1512 265 bang;
#X obj 1537 977 hip~ 5;
#X obj 1537 943 *~;
#X obj 1566 897 vline~;
#X obj 1535 802 vline~;
#X obj 1589 978 sig~;
#X obj 1585 1021 *~;
#X obj 1589 999 lop~ 10;
#X obj 1319 264 adc~;
#X obj 1403 265 del 10;
#X obj 1362 240 bng 15 250 50 0 empty empty empty 17 7 0 10 -262144
-1 -1;
#X obj 1206 168 bng 15 250 50 0 empty empty empty 17 7 0 10 -262144
-1 -1;
#X obj 1206 192 del 10;
#X obj -101 134 dumpOSC 14000;
#X obj -101 165 OSCroute /routo;
#X obj -70 188 sel 0 1 2 3 4;
#X obj 1454 379 delay 10;
#X msg -29 337 print;
#X msg -87 295 start;
#X msg 71 341 stop;
#X obj -39 381 writesf~ 2;
#X obj 157 341 loadbang;
#X obj 161 419 soundfiler;
#X msg 219 341 bang;
#X obj 26 340 adc~;
#X obj 110 341 del 10;
#X obj 69 316 bng 15 250 50 0 empty empty empty 17 7 0 10 -262144 -1
-1;
#X obj -87 268 del 10;
#X obj 751 587 sendOSC;
#X msg 161 479 send /routo 1;
#X msg 6 481 connect localhost 15000;
#X obj 6 457 loadbang;
#X msg 826 288 print;
#X msg 768 246 start;
#X msg 926 292 stop;
#X obj 816 332 writesf~ 2;
#X obj 1012 292 loadbang;
#X obj 1016 382 soundfiler;
#X msg 1074 292 bang;
#X obj 881 291 adc~;
#X obj 965 292 del 10;
#X obj 924 267 bng 15 250 50 0 empty empty empty 17 7 0 10 -262144
-1 -1;
#X obj 768 195 bng 15 250 50 0 empty empty empty 17 7 0 10 -262144
-1 -1;
#X obj 768 219 del 10;
#X obj 1016 406 delay 10;
#X msg 400 313 print;
#X msg 342 271 start;
#X msg 500 317 stop;
#X obj 390 357 writesf~ 2;
#X obj 586 317 loadbang;
#X obj 590 407 soundfiler;
#X msg 648 317 bang;
#X obj 455 316 adc~;
#X obj 539 317 del 10;
#X obj 498 292 bng 15 250 50 0 empty empty empty 17 7 0 10 -262144
-1 -1;
#X obj 342 220 bng 15 250 50 0 empty empty empty 17 7 0 10 -262144
-1 -1;
#X obj 342 244 del 10;
#X obj 590 431 delay 10;
#N canvas 0 22 450 300 (subpatch) 0;
#X array B 262910 float 0;
#X coords 0 1 262909 -1 200 140 1;
#X restore 139 633 graph;
#N canvas 0 22 450 300 (subpatch) 0;
#X array C 53822 float 0;
#X coords 0 1 53821 -1 200 140 1;
#X restore 379 635 graph;
#N canvas 0 22 450 300 (subpatch) 0;
#X array D 1 float 0;
#X coords 0 1 1 -1 200 140 1;
#X restore 606 635 graph;
#X msg 590 456 send /routo 2;
#X msg 1016 431 send /routo 3;
#X msg 1454 404 send /routo 4;
#X msg 1533 627 bang;
#X obj 1633 682 delay 5;
#X text 1543 675 cut the;
#X text 1543 694 sound off;
#X text 1713 667 Wait for the;
#X text 1711 687 cutoff to finish;
#X obj 161 455 delay 30;
#X obj -3 814 loadbang;
#X obj -3 936 writesf~ 2;
#X floatatom 64 879 5 0 0 0 - - -;
#X obj 64 904 sig~;
#X msg 6 864 start;
#X msg 11 905 stop;
#X obj 10 886 del 1;
#X obj 383 818 loadbang;
#X obj 383 940 writesf~ 2;
#X floatatom 450 883 5 0 0 0 - - -;
#X obj 450 908 sig~;
#X msg 392 868 start;
#X msg 397 909 stop;
#X obj 396 890 del 1;
#X obj -1 961 loadbang;
#X obj -1 1083 writesf~ 2;
#X floatatom 66 1026 5 0 0 0 - - -;
#X obj 66 1051 sig~;
#X msg 8 1011 start;
#X msg 13 1052 stop;
#X obj 12 1033 del 1;
#X obj 385 965 loadbang;
#X obj 385 1087 writesf~ 2;
#X floatatom 452 1030 5 0 0 0 - - -;
#X obj 452 1055 sig~;
#X msg 394 1015 start;
#X msg 399 1056 stop;
#X obj 398 1037 del 1;
#X msg -38 266 open ./Shizuku.app/Contents/Resources/kobin1.aiff;
#X msg 161 380 read -resize ./Shizuku.app/Contents/Resources/kobin1.aiff
A;
#X msg 390 242 open ./Shizuku.app/Contents/Resources/kobin2.aiff;
#X msg 588 356 read -resize ./Shizuku.app/Contents/Resources/kobin2.aiff
B;
#X msg 817 217 open ./Shizuku.app/Contents/Resources/kobin3.aiff;
#X msg 1015 331 read -resize ./Shizuku.app/Contents/Resources/kobin3.aiff
C;
#X msg 1255 190 open ./Shizuku.app/Contents/Resources/kobin4.aiff;
#X msg 1454 304 read -resize ./Shizuku.app/Contents/Resources/kobin4.aiff
D;
#X msg -3 841 open ./Shizuku.app/Contents/Resources/kobin1.aiff;
#X msg -1 988 open ./Shizuku.app/Contents/Resources/kobin3.aiff;
#X msg 383 845 open ./Shizuku.app/Contents/Resources/kobin2.aiff;
#X msg 385 991 open ./Shizuku.app/Contents/Resources/kobin4.aiff;
#X msg -26 52 send /add 1 0 10 0 255 255 255 0 0;
#X msg 213 51 send /delete 1 0 10 0 255 255 255 0 0;
#X obj 1249 971 hip~ 5;
#X obj 1249 937 *~;
#X obj 1278 891 vline~;
#X obj 1247 796 vline~;
#X obj 1301 972 sig~;
#X obj 1297 1015 *~;
#X obj 1301 993 lop~ 10;
#X msg 1245 621 bang;
#X obj 1345 676 delay 5;
#X text 1255 669 cut the;
#X text 1255 688 sound off;
#X text 1425 661 Wait for the;
#X text 1423 681 cutoff to finish;
#X obj 1528 1105 output~;
#X obj 949 970 hip~ 5;
#X obj 949 936 *~;
#X obj 978 890 vline~;
#X obj 947 795 vline~;
#X obj 1001 971 sig~;
#X obj 997 1014 *~;
#X obj 1001 992 lop~ 10;
#X msg 945 620 bang;
#X obj 1045 675 delay 5;
#X text 955 668 cut the;
#X text 955 687 sound off;
#X text 1125 660 Wait for the;
#X text 1123 680 cutoff to finish;
#X msg 945 711 \; cutoffA 0 5;
#X msg 1045 710 \; phaseA 1 \, 4.41e+08 1e+07 \; cutoffA 1;
#X obj 947 765 r phaseA;
#X obj 947 825 tabread4~ A;
#X obj 978 861 r cutoffA;
#X obj 1828 979 hip~ 5;
#X obj 1828 945 *~;
#X obj 1857 899 vline~;
#X obj 1826 804 vline~;
#X obj 1880 980 sig~;
#X obj 1876 1023 *~;
#X obj 1880 1001 lop~ 10;
#X msg 1824 629 bang;
#X obj 1924 684 delay 5;
#X text 1834 677 cut the;
#X text 1834 696 sound off;
#X text 2004 669 Wait for the;
#X text 2002 689 cutoff to finish;
#X msg 1245 712 \; cutoffB 0 5;
#X msg 1345 711 \; phaseB 1 \, 4.41e+08 1e+07 \; cutoffB 1;
#X obj 1247 766 r phaseB;
#X obj 1247 826 tabread4~ B;
#X obj 1278 862 r cutoffB;
#X obj 1566 868 r cutoffC;
#X obj 1535 832 tabread4~ C;
#X obj 1535 772 r phaseC;
#X msg 1533 718 \; cutoffC 0 5;
#X msg 1633 717 \; phaseC 1 \, 4.41e+08 1e+07 \; cutoffC 1;
#X msg 1824 720 \; cutoffD 0 5;
#X msg 1924 719 \; phaseD 1 \, 4.41e+08 1e+07 \; cutoffD 1;
#X obj 1826 774 r phaseD;
#X obj 1826 834 tabread4~ D;
#X obj 1857 870 r cutoffD;
#X msg -16 79 send /add 2 90 10 105 255 255 255 0 0;
#X msg 223 78 send /delete 2 90 10 105 255 255 255 0 0;
#X msg 534 48 send /add 3 180 10 180 255 255 255 0 0;
#X msg 567 75 send /add 4 270 10 240 255 255 255 0 0;
#X msg 783 48 send /delete 3 180 10 180 255 255 255 0 0;
#X msg 815 74 send /delete 4 270 10 240 255 255 255 0 0;
#X msg 567 14 send /add 1 180 10 180 255 255 255 0 0;
#X msg 816 14 send /delete 1 180 10 180 255 255 255 0 0;
#X msg 618 102 send /add 1 270 10 240 255 255 255 0 0;
#X msg 866 101 send /delete 1 270 10 240 255 255 255 0 0;
#X obj 29 550 tgl 15 0 empty empty empty 17 7 0 10 -262144 -1 -1 0
-1;
#X obj 30 589 bng 15 250 50 0 empty empty empty 17 7 0 10 -262144 -1
-1;
#X floatatom 180 523 5 0 0 0 - - -;
#X obj -88 215 tgl 15 0 empty empty empty 17 7 0 10 -262144 -1 -1 0
1;
#X obj -66 236 sel 1;
#X obj 189 300 sel 1;
#X floatatom 23 518 5 0 0 0 - - -;
#X obj 242 569 &&;
#X floatatom 241 608 5 0 0 0 - - -;
#X connect 1 0 4 0;
#X connect 2 0 4 0;
#X connect 3 0 4 0;
#X connect 5 0 114 0;
#X connect 8 0 114 0;
#X connect 9 0 14 0;
#X connect 9 0 134 0;
#X connect 9 0 134 1;
#X connect 10 0 9 0;
#X connect 11 0 10 1;
#X connect 12 0 172 0;
#X connect 13 0 15 0;
#X connect 15 0 14 1;
#X connect 16 0 4 0;
#X connect 16 1 4 0;
#X connect 17 0 114 0;
#X connect 17 0 24 0;
#X connect 18 0 17 0;
#X connect 18 0 3 0;
#X connect 19 0 20 0;
#X connect 19 0 113 0;
#X connect 20 0 2 0;
#X connect 21 0 0 0;
#X connect 21 0 22 0;
#X connect 22 0 23 0;
#X connect 22 0 194 0;
#X connect 23 0 18 0;
#X connect 23 0 62 0;
#X connect 23 0 49 0;
#X connect 23 1 194 0;
#X connect 23 2 63 0;
#X connect 23 3 50 0;
#X connect 23 4 19 0;
#X connect 24 0 71 0;
#X connect 25 0 28 0;
#X connect 26 0 28 0;
#X connect 27 0 28 0;
#X connect 29 0 108 0;
#X connect 31 0 108 0;
#X connect 32 0 28 0;
#X connect 32 1 28 0;
#X connect 33 0 108 0;
#X connect 33 0 78 0;
#X connect 34 0 33 0;
#X connect 34 0 27 0;
#X connect 35 0 26 0;
#X connect 37 0 36 0;
#X connect 38 0 36 0;
#X connect 39 0 38 0;
#X connect 40 0 43 0;
#X connect 41 0 43 0;
#X connect 42 0 43 0;
#X connect 44 0 112 0;
#X connect 46 0 112 0;
#X connect 47 0 43 0;
#X connect 47 1 43 0;
#X connect 48 0 112 0;
#X connect 48 0 52 0;
#X connect 49 0 48 0;
#X connect 49 0 42 0;
#X connect 50 0 51 0;
#X connect 50 0 111 0;
#X connect 51 0 41 0;
#X connect 52 0 70 0;
#X connect 53 0 56 0;
#X connect 54 0 56 0;
#X connect 55 0 56 0;
#X connect 57 0 110 0;
#X connect 59 0 110 0;
#X connect 60 0 56 0;
#X connect 60 1 56 0;
#X connect 61 0 110 0;
#X connect 61 0 65 0;
#X connect 62 0 61 0;
#X connect 62 0 55 0;
#X connect 63 0 64 0;
#X connect 63 0 109 0;
#X connect 64 0 54 0;
#X connect 65 0 69 0;
#X connect 69 0 36 0;
#X connect 70 0 36 0;
#X connect 71 0 36 0;
#X connect 72 0 73 0;
#X connect 72 0 174 0;
#X connect 73 0 175 0;
#X connect 78 0 37 0;
#X connect 79 0 115 0;
#X connect 81 0 82 0;
#X connect 82 0 80 0;
#X connect 83 0 80 0;
#X connect 83 0 85 0;
#X connect 84 0 80 0;
#X connect 85 0 84 0;
#X connect 86 0 117 0;
#X connect 88 0 89 0;
#X connect 89 0 87 0;
#X connect 90 0 87 0;
#X connect 90 0 92 0;
#X connect 91 0 87 0;
#X connect 92 0 91 0;
#X connect 93 0 116 0;
#X connect 95 0 96 0;
#X connect 96 0 94 0;
#X connect 97 0 94 0;
#X connect 97 0 99 0;
#X connect 98 0 94 0;
#X connect 99 0 98 0;
#X connect 100 0 118 0;
#X connect 102 0 103 0;
#X connect 103 0 101 0;
#X connect 104 0 101 0;
#X connect 104 0 106 0;
#X connect 105 0 101 0;
#X connect 106 0 105 0;
#X connect 107 0 28 0;
#X connect 108 0 30 0;
#X connect 109 0 56 0;
#X connect 110 0 58 0;
#X connect 111 0 43 0;
#X connect 112 0 45 0;
#X connect 113 0 4 0;
#X connect 114 0 6 0;
#X connect 115 0 80 0;
#X connect 115 0 83 0;
#X connect 116 0 94 0;
#X connect 116 0 97 0;
#X connect 117 0 87 0;
#X connect 117 0 90 0;
#X connect 118 0 101 0;
#X connect 118 0 104 0;
#X connect 119 0 36 0;
#X connect 120 0 36 0;
#X connect 121 0 126 0;
#X connect 121 0 134 0;
#X connect 121 0 134 1;
#X connect 122 0 121 0;
#X connect 123 0 122 1;
#X connect 124 0 169 0;
#X connect 125 0 127 0;
#X connect 127 0 126 1;
#X connect 128 0 129 0;
#X connect 128 0 166 0;
#X connect 129 0 167 0;
#X connect 135 0 140 0;
#X connect 135 0 134 0;
#X connect 135 0 134 1;
#X connect 136 0 135 0;
#X connect 137 0 136 1;
#X connect 138 0 151 0;
#X connect 139 0 141 0;
#X connect 141 0 140 1;
#X connect 142 0 143 0;
#X connect 142 0 148 0;
#X connect 143 0 149 0;
#X connect 150 0 138 0;
#X connect 151 0 136 0;
#X connect 152 0 137 0;
#X connect 153 0 158 0;
#X connect 153 0 134 0;
#X connect 153 0 134 1;
#X connect 154 0 153 0;
#X connect 155 0 154 1;
#X connect 156 0 179 0;
#X connect 157 0 159 0;
#X connect 159 0 158 1;
#X connect 160 0 161 0;
#X connect 160 0 176 0;
#X connect 161 0 177 0;
#X connect 168 0 124 0;
#X connect 169 0 122 0;
#X connect 170 0 123 0;
#X connect 171 0 11 0;
#X connect 172 0 10 0;
#X connect 173 0 12 0;
#X connect 178 0 156 0;
#X connect 179 0 154 0;
#X connect 180 0 155 0;
#X connect 181 0 36 0;
#X connect 182 0 36 0;
#X connect 183 0 36 0;
#X connect 184 0 36 0;
#X connect 185 0 36 0;
#X connect 186 0 36 0;
#X connect 187 0 36 0;
#X connect 188 0 36 0;
#X connect 189 0 36 0;
#X connect 190 0 36 0;
#X connect 191 0 192 0;
#X connect 193 0 198 1;
#X connect 194 0 195 0;
#X connect 195 0 35 0;
#X connect 197 0 191 0;
#X connect 197 0 198 0;
#X connect 198 0 199 0;
